<svg xmlns="http://www.w3.org/2000/svg" xmlns:xlink="http://www.w3.org/1999/xlink" width="500" zoomAndPan="magnify" viewBox="0 0 375 374.999991" height="500" preserveAspectRatio="xMidYMid meet" version="1.0"><defs><clipPath id="bb20489f9b"><path d="M 19.613281 32 L 367.613281 32 L 367.613281 343 L 19.613281 343 Z M 19.613281 32 " clip-rule="nonzero"/></clipPath><clipPath id="3b1b3ab56b"><path d="M 88.035156 172 L 202 172 L 202 227 L 88.035156 227 Z M 88.035156 172 " clip-rule="nonzero"/></clipPath><clipPath id="e2db75db87"><path d="M 216 172 L 329.535156 172 L 329.535156 227 L 216 227 Z M 216 172 " clip-rule="nonzero"/></clipPath><clipPath id="632245d6a6"><path d="M 179 84.308594 L 238 84.308594 L 238 189 L 179 189 Z M 179 84.308594 " clip-rule="nonzero"/></clipPath><clipPath id="31946f1106"><path d="M 88.035156 314 L 225 314 L 225 337 L 88.035156 337 Z M 88.035156 314 " clip-rule="nonzero"/></clipPath></defs><g clip-path="url(#bb20489f9b)"><path fill="#9f3f15" d="M 86.195312 342.910156 C 45.664062 311.054688 19.597656 261.574219 19.597656 206.054688 C 19.597656 110.035156 97.550781 32.074219 193.574219 32.074219 C 289.597656 32.074219 367.558594 110.035156 367.558594 206.054688 C 367.558594 261.574219 341.492188 311.054688 300.953125 342.910156 C 336.171875 312.652344 358.476562 267.808594 358.476562 217.800781 C 358.476562 126.785156 284.585938 52.894531 193.574219 52.894531 C 102.566406 52.894531 28.671875 126.785156 28.671875 217.800781 C 28.671875 267.808594 50.988281 312.652344 86.195312 342.910156 Z M 86.195312 342.910156 " fill-opacity="1" fill-rule="evenodd"/></g><path fill="#9f4b15" d="M 272.667969 131.726562 C 272.273438 126.503906 271.613281 121.292969 270.726562 116.132812 C 270.097656 112.480469 269.363281 108.839844 268.46875 105.242188 C 268.375 105.269531 268.28125 105.296875 268.183594 105.324219 C 261.636719 107.242188 255.207031 109.609375 248.945312 112.324219 C 244.089844 114.421875 239.382812 116.796875 234.722656 119.308594 C 243.007812 111.457031 253.867188 105.773438 264.628906 102.128906 C 266.808594 101.382812 269.171875 100.746094 271.410156 100.144531 C 272.019531 102.371094 272.640625 104.753906 273.085938 107.011719 C 274.15625 112.285156 274.792969 117.671875 274.929688 123.050781 C 275.085938 129.234375 274.625 135.484375 273.164062 141.5 C 273.054688 138.230469 272.921875 134.976562 272.667969 131.726562 Z M 272.667969 131.726562 " fill-opacity="1" fill-rule="nonzero"/><g clip-path="url(#3b1b3ab56b)"><path fill="#9f4b15" d="M 89 181.984375 C 95.457031 178.191406 102.351562 175.121094 109.488281 172.851562 L 110.175781 172.636719 C 109.304688 173.046875 108.441406 173.46875 107.578125 173.886719 C 101.949219 176.652344 96.464844 179.742188 91.273438 183.253906 C 95.328125 188.90625 99.902344 194.21875 104.824219 199.121094 C 110.003906 204.246094 115.660156 208.914062 121.820312 212.808594 C 132.859375 219.75 144.03125 223.351562 157.136719 223.175781 C 165.785156 223.089844 174.363281 221.464844 182.632812 218.980469 C 189.082031 217.074219 195.371094 214.460938 201.46875 211.703125 C 201.46875 211.703125 201.257812 211.730469 201.257812 211.730469 L 201.460938 211.671875 L 201.558594 211.648438 C 201.558594 211.648438 201.472656 211.703125 201.472656 211.703125 C 200.707031 212.207031 199.648438 212.839844 198.886719 213.324219 C 183.328125 222.722656 164.058594 228.761719 145.777344 226.308594 C 132.257812 224.515625 119.878906 217.632812 109.695312 208.773438 C 101.417969 201.542969 94.320312 193 88.652344 183.589844 L 88.039062 182.554688 C 88.039062 182.554688 89 181.980469 89 181.980469 Z M 89 181.984375 " fill-opacity="1" fill-rule="nonzero"/></g><g clip-path="url(#e2db75db87)"><path fill="#9f4b15" d="M 252.789062 222.6875 C 260.609375 223.566406 268.628906 223.351562 276.285156 221.445312 C 287.179688 218.753906 297.011719 212.921875 305.632812 205.816406 C 313.542969 199.25 320.558594 191.589844 326.566406 183.253906 C 320.578125 179.199219 314.207031 175.714844 307.660156 172.640625 C 315.042969 174.921875 322.171875 178.078125 328.835938 181.988281 L 329.796875 182.558594 C 329.796875 182.558594 329.183594 183.589844 329.183594 183.589844 C 321.171875 196.789062 310.429688 208.539062 297.335938 216.816406 C 289.671875 221.628906 281.0625 225.121094 272.058594 226.316406 C 255.261719 228.546875 238.117188 223.734375 223.375 215.851562 C 221.277344 214.734375 219.234375 213.507812 217.226562 212.238281 C 216.9375 212.058594 216.652344 211.878906 216.371094 211.691406 C 222.511719 214.554688 228.75 217.042969 235.199219 218.988281 C 240.941406 220.710938 246.828125 222.007812 252.789062 222.683594 Z M 252.789062 222.6875 " fill-opacity="1" fill-rule="nonzero"/></g><path fill="#9f4b15" d="M 159.925781 108.734375 C 156.445312 107.453125 152.925781 106.269531 149.363281 105.242188 C 149.339844 105.339844 149.316406 105.433594 149.292969 105.53125 C 147.683594 112.160156 146.515625 118.914062 145.734375 125.691406 C 145.125 130.941406 144.828125 136.210938 144.671875 141.5 C 142.015625 130.394531 142.519531 118.15625 144.75 107.011719 C 145.191406 104.75 145.820312 102.382812 146.421875 100.144531 C 148.65625 100.734375 151.03125 101.378906 153.207031 102.128906 C 158.3125 103.839844 163.289062 105.984375 168.023438 108.550781 C 173.457031 111.507812 178.636719 115.027344 183.117188 119.304688 C 180.230469 117.761719 177.347656 116.253906 174.40625 114.847656 C 169.683594 112.578125 164.839844 110.546875 159.929688 108.734375 Z M 159.925781 108.734375 " fill-opacity="1" fill-rule="nonzero"/><path fill="#9f4b15" d="M 211.753906 207.644531 C 229.035156 210.996094 247.542969 211.457031 264.425781 205.867188 C 284.183594 199.511719 297.792969 182.625 306.242188 164.320312 C 307.109375 162.460938 307.949219 160.515625 308.71875 158.609375 C 310.011719 155.375 311.195312 152.078125 312.199219 148.738281 C 308.117188 147.699219 303.957031 146.914062 299.792969 146.316406 C 286.910156 144.515625 273.570312 144.628906 260.980469 148.125 C 257.046875 149.234375 253.195312 150.675781 249.546875 152.519531 C 245.859375 154.363281 242.394531 156.628906 239.136719 159.152344 C 242.429688 156.007812 246.128906 153.203125 250.109375 150.949219 C 252.449219 149.601562 254.957031 148.410156 257.460938 147.402344 C 270.15625 142.347656 284.222656 141.273438 297.738281 142.507812 C 304.242188 143.105469 310.710938 144.242188 317.011719 145.964844 C 315.390625 152.511719 313.175781 158.90625 310.425781 165.066406 C 305.296875 176.527344 298.289062 187.335938 288.910156 195.78125 C 283.800781 200.394531 277.925781 204.199219 271.546875 206.8125 C 256.613281 212.933594 239.832031 213.320312 224.101562 210.59375 C 220.289062 209.921875 216.472656 209.058594 212.757812 207.964844 L 211.746094 207.65625 C 211.746094 207.65625 211.757812 207.644531 211.757812 207.644531 Z M 211.753906 207.644531 " fill-opacity="1" fill-rule="nonzero"/><g clip-path="url(#632245d6a6)"><path fill="#9f4b15" d="M 180.519531 158.039062 C 175.488281 135.914062 185.0625 113.34375 198.519531 96.054688 C 201.714844 91.929688 205.175781 88.015625 208.929688 84.378906 C 212.824219 88.25 216.382812 92.425781 219.65625 96.824219 C 222.644531 100.847656 225.386719 105.074219 227.785156 109.476562 C 232.5625 118.257812 236.101562 127.84375 237.230469 137.8125 C 237.378906 139.203125 237.5 140.675781 237.546875 142.078125 C 237.609375 143.5 237.589844 144.925781 237.542969 146.34375 C 237.378906 142.800781 236.9375 139.285156 236.199219 135.828125 C 235.550781 132.75 234.660156 129.648438 233.617188 126.679688 C 231.636719 121.046875 229.023438 115.632812 225.992188 110.492188 C 223.320312 105.957031 220.296875 101.621094 217.027344 97.5 C 215.949219 96.125 214.808594 94.773438 213.671875 93.445312 C 212.144531 91.6875 210.566406 89.957031 208.941406 88.300781 C 195.257812 102.808594 183.703125 121.660156 181.675781 141.746094 C 181.082031 147.78125 181.527344 153.882812 182.753906 159.820312 C 184.835938 169.832031 189.042969 179.304688 194.222656 188.09375 C 188.765625 180.382812 184.390625 171.890625 181.71875 162.796875 C 181.25 161.253906 180.882812 159.613281 180.523438 158.042969 Z M 180.519531 158.039062 " fill-opacity="1" fill-rule="nonzero"/></g><path fill="#9f4b15" d="M 194.222656 188.09375 C 196.023438 190.417969 197.855469 192.703125 199.761719 194.9375 C 202.648438 198.324219 205.679688 201.617188 208.875 204.71875 C 209.097656 204.476562 209.320312 204.238281 209.527344 204.003906 C 214.929688 198.027344 219.804688 191.5625 224.046875 184.710938 C 231.199219 173.089844 236.480469 160.046875 237.546875 146.347656 C 238.496094 158.5 234.75 170.824219 229.148438 181.503906 C 225.472656 188.5 220.890625 195.015625 215.695312 200.960938 C 213.546875 203.417969 211.261719 205.769531 208.871094 208.003906 L 208.101562 207.183594 C 205.382812 204.3125 202.878906 201.246094 200.542969 198.058594 C 198.234375 194.875 196.078125 191.5625 194.21875 188.097656 Z M 194.222656 188.09375 " fill-opacity="1" fill-rule="nonzero"/><path fill="#9f4b15" d="M 147.300781 207.214844 C 130.601562 200.785156 118.25 186.46875 110.210938 170.875 C 109.066406 168.679688 107.96875 166.347656 106.984375 164.078125 C 104.429688 158.226562 102.367188 152.164062 100.832031 145.960938 C 107.945312 144.019531 115.265625 142.820312 122.617188 142.300781 C 135.558594 141.414062 148.886719 142.691406 160.96875 147.636719 C 162.480469 148.265625 164.074219 149 165.53125 149.746094 C 166.386719 150.183594 167.449219 150.78125 168.28125 151.257812 C 172.046875 153.46875 175.566406 156.144531 178.710938 159.152344 C 175.449219 156.628906 171.984375 154.363281 168.296875 152.519531 C 164.648438 150.675781 160.796875 149.230469 156.863281 148.125 C 144.667969 144.734375 131.761719 144.527344 119.261719 146.152344 C 114.6875 146.761719 110.117188 147.601562 105.640625 148.738281 C 106.246094 150.757812 106.921875 152.761719 107.636719 154.738281 C 110.480469 162.511719 114.066406 170.058594 118.53125 177.03125 C 124.792969 186.816406 132.902344 195.640625 143.09375 201.332031 C 152.140625 206.378906 162.40625 208.867188 172.675781 209.742188 C 178.230469 210.214844 183.828125 210.222656 189.398438 209.855469 C 194.988281 209.484375 200.566406 208.75 206.09375 207.660156 L 205.082031 207.96875 C 204.742188 208.066406 204.402344 208.160156 204.0625 208.257812 C 202.027344 208.835938 199.96875 209.339844 197.898438 209.785156 C 181.253906 213.3125 163.351562 213.445312 147.304688 207.222656 Z M 147.300781 207.214844 " fill-opacity="1" fill-rule="nonzero"/><path fill="#9f4b15" d="M 248.890625 331.9375 C 253.714844 324.96875 259.832031 319.601562 269.285156 318.320312 C 287.597656 315.847656 293.894531 338.558594 261.332031 348.054688 C 299.148438 343.289062 289.925781 311.488281 268.558594 315.222656 C 258.292969 317.011719 252.339844 323.203125 248.890625 331.9375 " fill-opacity="1" fill-rule="nonzero"/><path fill="#9f4b15" d="M 252.140625 321.046875 C 244.191406 305.679688 221.207031 327.515625 214.226562 334.730469 C 211.542969 337.511719 203.683594 348.277344 212.980469 345.292969 C 225.804688 341.164062 236.515625 334.488281 253.550781 346.402344 C 236.136719 339.277344 224.191406 344.941406 214.066406 348.507812 C 198.863281 353.859375 206.390625 338.464844 212.292969 332.171875 C 218.945312 325.070312 248.105469 300.757812 252.140625 321.046875 " fill-opacity="1" fill-rule="nonzero"/><g clip-path="url(#31946f1106)"><path fill="#9f4b15" d="M 224.617188 316.945312 C 210.976562 326.894531 194.546875 330.519531 179.675781 323.960938 C 151.160156 311.398438 152.882812 319.445312 129.15625 330.253906 C 115.667969 336.402344 101.933594 337.648438 88.035156 335.609375 C 101.890625 335.898438 115.3125 333.648438 128.035156 327.351562 C 152.242188 315.359375 151.078125 308.050781 180.519531 320.808594 C 196.15625 327.570312 207.542969 324.199219 224.617188 316.945312 " fill-opacity="1" fill-rule="nonzero"/></g><path fill="#9f4b15" d="M 178.371094 280.398438 C 179.164062 272.464844 181.179688 267.320312 187.335938 263.363281 C 193.042969 259.695312 198.484375 258.285156 200.890625 251.8125 C 203.5625 244.621094 203.726562 236.730469 210.003906 232.691406 C 222.726562 224.492188 233.640625 238.5 229.855469 248.65625 C 227.371094 255.335938 213.578125 269.207031 205.265625 261.210938 C 212.242188 273.535156 229.34375 256.425781 232.023438 249.175781 C 236.714844 236.476562 224.351562 220.015625 208.507812 230.132812 C 201.132812 234.84375 200.980469 242.800781 197.5625 251.246094 C 195.339844 256.722656 190.878906 257.765625 185.453125 260.949219 C 178.277344 265.167969 175.507812 271.132812 174.675781 279.789062 C 172.019531 307.390625 163.90625 298.917969 154.601562 313.476562 C 168.632812 301.355469 175.832031 305.878906 178.371094 280.398438 " fill-opacity="1" fill-rule="nonzero"/><path fill="#9f4b15" d="M 209.347656 272.519531 C 218.667969 280.867188 211.0625 301.339844 228.984375 313.621094 C 213.160156 294.910156 223.003906 282.835938 209.347656 272.519531 " fill-opacity="1" fill-rule="nonzero"/><path fill="#9f4b15" d="M 194.585938 277.328125 C 200.476562 284.558594 200.488281 289.578125 204.082031 296.734375 C 207.316406 303.175781 215.75 311.101562 220.320312 315.722656 C 217.261719 311.8125 209.65625 301.867188 206.554688 295.96875 C 202.71875 288.6875 202.921875 282.5625 194.585938 277.328125 " fill-opacity="1" fill-rule="nonzero"/><path fill="#9f4b15" d="M 187.777344 294.019531 C 190.617188 303.972656 201.335938 311.601562 212.152344 319.546875 C 202.261719 314.425781 187.371094 307.289062 187.777344 294.019531 " fill-opacity="1" fill-rule="nonzero"/><path fill="#9f4b15" d="M 207.265625 229.835938 C 203.75 218.695312 217.496094 216.769531 216.152344 226.402344 C 213.59375 220.171875 207.144531 222.417969 207.265625 229.835938 " fill-opacity="1" fill-rule="nonzero"/></svg>